<svg width="1280" height="640" viewBox="0 0 1280 640" fill="none" xmlns="http://www.w3.org/2000/svg">
<g clip-path="url(#clip0_7975_1884)">
<rect width="1280" height="640" rx="40" fill="white"/>
<rect x="-59" y="558" width="1417" height="154" fill="#313E4F"/>
<path d="M760.086 268.562V297H754.715V268.562H760.086ZM771.551 280.848V285.086H758.68V280.848H771.551ZM773.055 268.562V272.801H758.68V268.562H773.055ZM780.965 280.184V297H775.809V275.867H780.691L780.965 280.184ZM787.391 275.73L787.312 280.535C787.026 280.483 786.701 280.444 786.336 280.418C785.984 280.392 785.652 280.379 785.34 280.379C784.546 280.379 783.849 280.49 783.25 280.711C782.651 280.919 782.15 281.225 781.746 281.629C781.355 282.033 781.056 282.527 780.848 283.113C780.639 283.686 780.522 284.337 780.496 285.066L779.383 284.93C779.383 283.589 779.52 282.345 779.793 281.199C780.066 280.053 780.464 279.051 780.984 278.191C781.505 277.332 782.156 276.668 782.938 276.199C783.732 275.717 784.643 275.477 785.672 275.477C785.958 275.477 786.264 275.503 786.59 275.555C786.928 275.594 787.195 275.652 787.391 275.73ZM788.758 286.648V286.238C788.758 284.689 788.979 283.263 789.422 281.961C789.865 280.646 790.509 279.507 791.355 278.543C792.202 277.579 793.237 276.831 794.461 276.297C795.685 275.75 797.078 275.477 798.641 275.477C800.229 275.477 801.635 275.75 802.859 276.297C804.096 276.831 805.138 277.579 805.984 278.543C806.831 279.507 807.475 280.646 807.918 281.961C808.361 283.263 808.582 284.689 808.582 286.238V286.648C808.582 288.185 808.361 289.611 807.918 290.926C807.475 292.228 806.831 293.367 805.984 294.344C805.138 295.307 804.103 296.056 802.879 296.59C801.655 297.124 800.255 297.391 798.68 297.391C797.117 297.391 795.717 297.124 794.48 296.59C793.243 296.056 792.202 295.307 791.355 294.344C790.509 293.367 789.865 292.228 789.422 290.926C788.979 289.611 788.758 288.185 788.758 286.648ZM793.914 286.238V286.648C793.914 287.573 794.005 288.439 794.188 289.246C794.37 290.053 794.65 290.763 795.027 291.375C795.405 291.987 795.893 292.469 796.492 292.82C797.104 293.159 797.833 293.328 798.68 293.328C799.513 293.328 800.229 293.159 800.828 292.82C801.427 292.469 801.915 291.987 802.293 291.375C802.684 290.763 802.97 290.053 803.152 289.246C803.335 288.439 803.426 287.573 803.426 286.648V286.238C803.426 285.327 803.335 284.474 803.152 283.68C802.97 282.872 802.684 282.163 802.293 281.551C801.915 280.926 801.421 280.438 800.809 280.086C800.21 279.721 799.487 279.539 798.641 279.539C797.807 279.539 797.091 279.721 796.492 280.086C795.893 280.438 795.405 280.926 795.027 281.551C794.65 282.163 794.37 282.872 794.188 283.68C794.005 284.474 793.914 285.327 793.914 286.238ZM817.391 280.379V297H812.234V275.867H817.078L817.391 280.379ZM816.57 285.672H815.047C815.06 284.135 815.268 282.742 815.672 281.492C816.076 280.242 816.642 279.168 817.371 278.27C818.113 277.371 818.992 276.681 820.008 276.199C821.023 275.717 822.156 275.477 823.406 275.477C824.422 275.477 825.34 275.62 826.16 275.906C826.98 276.193 827.684 276.648 828.27 277.273C828.868 277.898 829.324 278.719 829.637 279.734C829.962 280.737 830.125 281.974 830.125 283.445V297H824.93V283.406C824.93 282.443 824.786 281.681 824.5 281.121C824.227 280.561 823.823 280.164 823.289 279.93C822.768 279.695 822.124 279.578 821.355 279.578C820.561 279.578 819.865 279.741 819.266 280.066C818.68 280.379 818.185 280.815 817.781 281.375C817.391 281.935 817.091 282.579 816.883 283.309C816.674 284.038 816.57 284.826 816.57 285.672ZM844.676 275.867V279.578H832.566V275.867H844.676ZM835.809 270.672H840.984V290.906C840.984 291.531 841.069 292.013 841.238 292.352C841.408 292.69 841.661 292.918 842 293.035C842.339 293.152 842.742 293.211 843.211 293.211C843.549 293.211 843.862 293.191 844.148 293.152C844.435 293.113 844.676 293.074 844.871 293.035L844.891 296.902C844.461 297.046 843.973 297.163 843.426 297.254C842.892 297.345 842.286 297.391 841.609 297.391C840.451 297.391 839.435 297.195 838.562 296.805C837.69 296.401 837.013 295.757 836.531 294.871C836.049 293.973 835.809 292.788 835.809 291.316V270.672ZM877.312 292.781V297H862.195V292.781H877.312ZM863.836 268.562V297H858.465V268.562H863.836ZM875.34 280.301V284.422H862.195V280.301H875.34ZM877.254 268.562V272.801H862.195V268.562H877.254ZM885.711 280.379V297H880.555V275.867H885.398L885.711 280.379ZM884.891 285.672H883.367C883.38 284.135 883.589 282.742 883.992 281.492C884.396 280.242 884.962 279.168 885.691 278.27C886.434 277.371 887.312 276.681 888.328 276.199C889.344 275.717 890.477 275.477 891.727 275.477C892.742 275.477 893.66 275.62 894.48 275.906C895.301 276.193 896.004 276.648 896.59 277.273C897.189 277.898 897.645 278.719 897.957 279.734C898.283 280.737 898.445 281.974 898.445 283.445V297H893.25V283.406C893.25 282.443 893.107 281.681 892.82 281.121C892.547 280.561 892.143 280.164 891.609 279.93C891.089 279.695 890.444 279.578 889.676 279.578C888.882 279.578 888.185 279.741 887.586 280.066C887 280.379 886.505 280.815 886.102 281.375C885.711 281.935 885.411 282.579 885.203 283.309C884.995 284.038 884.891 284.826 884.891 285.672ZM915.672 292.508V267H920.867V297H916.18L915.672 292.508ZM902.098 286.688V286.277C902.098 284.663 902.28 283.198 902.645 281.883C903.022 280.555 903.569 279.415 904.285 278.465C905.001 277.514 905.867 276.779 906.883 276.258C907.911 275.737 909.077 275.477 910.379 275.477C911.642 275.477 912.742 275.73 913.68 276.238C914.63 276.746 915.438 277.469 916.102 278.406C916.779 279.344 917.319 280.457 917.723 281.746C918.126 283.022 918.419 284.428 918.602 285.965V287.078C918.419 288.576 918.126 289.949 917.723 291.199C917.319 292.449 916.779 293.543 916.102 294.48C915.438 295.405 914.63 296.121 913.68 296.629C912.729 297.137 911.616 297.391 910.34 297.391C909.051 297.391 907.892 297.124 906.863 296.59C905.848 296.056 904.982 295.307 904.266 294.344C903.562 293.38 903.022 292.247 902.645 290.945C902.28 289.643 902.098 288.224 902.098 286.688ZM907.273 286.277V286.688C907.273 287.599 907.352 288.452 907.508 289.246C907.664 290.04 907.918 290.743 908.27 291.355C908.621 291.954 909.07 292.423 909.617 292.762C910.177 293.1 910.854 293.27 911.648 293.27C912.664 293.27 913.497 293.048 914.148 292.605C914.812 292.15 915.327 291.531 915.691 290.75C916.056 289.956 916.29 289.064 916.395 288.074V285.008C916.342 284.227 916.206 283.504 915.984 282.84C915.776 282.176 915.477 281.603 915.086 281.121C914.708 280.639 914.24 280.262 913.68 279.988C913.12 279.715 912.456 279.578 911.688 279.578C910.893 279.578 910.216 279.754 909.656 280.105C909.096 280.444 908.641 280.919 908.289 281.531C907.938 282.143 907.677 282.853 907.508 283.66C907.352 284.467 907.273 285.34 907.273 286.277ZM944.383 297H938.25L938.289 292.781H944.383C946.036 292.781 947.423 292.417 948.543 291.688C949.663 290.945 950.509 289.884 951.082 288.504C951.655 287.111 951.941 285.444 951.941 283.504V282.039C951.941 280.542 951.779 279.22 951.453 278.074C951.128 276.928 950.646 275.965 950.008 275.184C949.383 274.402 948.608 273.81 947.684 273.406C946.759 273.003 945.698 272.801 944.5 272.801H938.133V268.562H944.5C946.401 268.562 948.133 268.882 949.695 269.52C951.271 270.158 952.632 271.076 953.777 272.273C954.936 273.458 955.822 274.878 956.434 276.531C957.059 278.185 957.371 280.034 957.371 282.078V283.504C957.371 285.535 957.059 287.384 956.434 289.051C955.822 290.704 954.936 292.124 953.777 293.309C952.632 294.493 951.264 295.405 949.676 296.043C948.087 296.681 946.323 297 944.383 297ZM941.258 268.562V297H935.887V268.562H941.258ZM971.043 297.391C969.441 297.391 968.003 297.13 966.727 296.609C965.451 296.089 964.363 295.366 963.465 294.441C962.579 293.504 961.896 292.417 961.414 291.18C960.945 289.93 960.711 288.589 960.711 287.156V286.375C960.711 284.747 960.945 283.27 961.414 281.941C961.883 280.6 962.547 279.448 963.406 278.484C964.266 277.521 965.294 276.779 966.492 276.258C967.69 275.737 969.012 275.477 970.457 275.477C971.954 275.477 973.276 275.73 974.422 276.238C975.568 276.733 976.525 277.436 977.293 278.348C978.061 279.259 978.641 280.353 979.031 281.629C979.422 282.892 979.617 284.292 979.617 285.828V287.996H963.055V284.441H974.539V284.051C974.513 283.23 974.357 282.482 974.07 281.805C973.784 281.115 973.341 280.568 972.742 280.164C972.143 279.747 971.368 279.539 970.418 279.539C969.65 279.539 968.979 279.708 968.406 280.047C967.846 280.372 967.378 280.841 967 281.453C966.635 282.052 966.362 282.768 966.18 283.602C965.997 284.435 965.906 285.359 965.906 286.375V287.156C965.906 288.042 966.023 288.862 966.258 289.617C966.505 290.372 966.863 291.03 967.332 291.59C967.814 292.137 968.387 292.566 969.051 292.879C969.728 293.178 970.496 293.328 971.355 293.328C972.436 293.328 973.413 293.12 974.285 292.703C975.171 292.273 975.939 291.642 976.59 290.809L979.188 293.504C978.745 294.155 978.146 294.78 977.391 295.379C976.648 295.978 975.75 296.466 974.695 296.844C973.641 297.208 972.423 297.391 971.043 297.391ZM989.812 293.094L994.734 275.867H1000.12L992.879 297H989.598L989.812 293.094ZM986.219 275.867L991.199 293.133L991.375 297H988.074L980.809 275.867H986.219ZM1012.06 297.391C1010.46 297.391 1009.02 297.13 1007.74 296.609C1006.47 296.089 1005.38 295.366 1004.48 294.441C1003.6 293.504 1002.91 292.417 1002.43 291.18C1001.96 289.93 1001.73 288.589 1001.73 287.156V286.375C1001.73 284.747 1001.96 283.27 1002.43 281.941C1002.9 280.6 1003.56 279.448 1004.42 278.484C1005.28 277.521 1006.31 276.779 1007.51 276.258C1008.71 275.737 1010.03 275.477 1011.47 275.477C1012.97 275.477 1014.29 275.73 1015.44 276.238C1016.58 276.733 1017.54 277.436 1018.31 278.348C1019.08 279.259 1019.66 280.353 1020.05 281.629C1020.44 282.892 1020.63 284.292 1020.63 285.828V287.996H1004.07V284.441H1015.55V284.051C1015.53 283.23 1015.37 282.482 1015.09 281.805C1014.8 281.115 1014.36 280.568 1013.76 280.164C1013.16 279.747 1012.38 279.539 1011.43 279.539C1010.67 279.539 1009.99 279.708 1009.42 280.047C1008.86 280.372 1008.39 280.841 1008.02 281.453C1007.65 282.052 1007.38 282.768 1007.2 283.602C1007.01 284.435 1006.92 285.359 1006.92 286.375V287.156C1006.92 288.042 1007.04 288.862 1007.27 289.617C1007.52 290.372 1007.88 291.03 1008.35 291.59C1008.83 292.137 1009.4 292.566 1010.07 292.879C1010.74 293.178 1011.51 293.328 1012.37 293.328C1013.45 293.328 1014.43 293.12 1015.3 292.703C1016.19 292.273 1016.95 291.642 1017.61 290.809L1020.2 293.504C1019.76 294.155 1019.16 294.78 1018.41 295.379C1017.66 295.978 1016.77 296.466 1015.71 296.844C1014.66 297.208 1013.44 297.391 1012.06 297.391ZM1029.56 267V297H1024.38V267H1029.56ZM1033.56 286.648V286.238C1033.56 284.689 1033.78 283.263 1034.23 281.961C1034.67 280.646 1035.31 279.507 1036.16 278.543C1037.01 277.579 1038.04 276.831 1039.27 276.297C1040.49 275.75 1041.88 275.477 1043.45 275.477C1045.03 275.477 1046.44 275.75 1047.66 276.297C1048.9 276.831 1049.94 277.579 1050.79 278.543C1051.64 279.507 1052.28 280.646 1052.72 281.961C1053.17 283.263 1053.39 284.689 1053.39 286.238V286.648C1053.39 288.185 1053.17 289.611 1052.72 290.926C1052.28 292.228 1051.64 293.367 1050.79 294.344C1049.94 295.307 1048.91 296.056 1047.68 296.59C1046.46 297.124 1045.06 297.391 1043.48 297.391C1041.92 297.391 1040.52 297.124 1039.29 296.59C1038.05 296.056 1037.01 295.307 1036.16 294.344C1035.31 293.367 1034.67 292.228 1034.23 290.926C1033.78 289.611 1033.56 288.185 1033.56 286.648ZM1038.72 286.238V286.648C1038.72 287.573 1038.81 288.439 1038.99 289.246C1039.17 290.053 1039.45 290.763 1039.83 291.375C1040.21 291.987 1040.7 292.469 1041.3 292.82C1041.91 293.159 1042.64 293.328 1043.48 293.328C1044.32 293.328 1045.03 293.159 1045.63 292.82C1046.23 292.469 1046.72 291.987 1047.1 291.375C1047.49 290.763 1047.77 290.053 1047.96 289.246C1048.14 288.439 1048.23 287.573 1048.23 286.648V286.238C1048.23 285.327 1048.14 284.474 1047.96 283.68C1047.77 282.872 1047.49 282.163 1047.1 281.551C1046.72 280.926 1046.23 280.438 1045.61 280.086C1045.01 279.721 1044.29 279.539 1043.45 279.539C1042.61 279.539 1041.9 279.721 1041.3 280.086C1040.7 280.438 1040.21 280.926 1039.83 281.551C1039.45 282.163 1039.17 282.872 1038.99 283.68C1038.81 284.474 1038.72 285.327 1038.72 286.238ZM1062.29 279.93V305.125H1057.12V275.867H1061.9L1062.29 279.93ZM1075.87 286.219V286.629C1075.87 288.165 1075.68 289.591 1075.32 290.906C1074.97 292.208 1074.45 293.348 1073.76 294.324C1073.07 295.288 1072.21 296.043 1071.18 296.59C1070.16 297.124 1068.99 297.391 1067.66 297.391C1066.36 297.391 1065.23 297.143 1064.27 296.648C1063.3 296.141 1062.49 295.424 1061.82 294.5C1061.16 293.576 1060.63 292.501 1060.22 291.277C1059.83 290.04 1059.54 288.693 1059.34 287.234V285.926C1059.54 284.376 1059.83 282.97 1060.22 281.707C1060.63 280.431 1061.16 279.331 1061.82 278.406C1062.49 277.469 1063.3 276.746 1064.25 276.238C1065.21 275.73 1066.34 275.477 1067.62 275.477C1068.97 275.477 1070.14 275.73 1071.16 276.238C1072.19 276.746 1073.05 277.475 1073.76 278.426C1074.46 279.376 1074.99 280.509 1075.34 281.824C1075.69 283.139 1075.87 284.604 1075.87 286.219ZM1070.69 286.629V286.219C1070.69 285.281 1070.61 284.415 1070.44 283.621C1070.27 282.814 1070.01 282.111 1069.66 281.512C1069.3 280.9 1068.85 280.424 1068.29 280.086C1067.73 279.747 1067.05 279.578 1066.26 279.578C1065.46 279.578 1064.78 279.708 1064.21 279.969C1063.63 280.229 1063.17 280.6 1062.8 281.082C1062.44 281.564 1062.15 282.137 1061.94 282.801C1061.75 283.452 1061.62 284.174 1061.55 284.969V288.211C1061.67 289.174 1061.9 290.04 1062.23 290.809C1062.57 291.577 1063.07 292.189 1063.72 292.645C1064.38 293.1 1065.24 293.328 1066.3 293.328C1067.09 293.328 1067.77 293.152 1068.33 292.801C1068.89 292.449 1069.34 291.967 1069.7 291.355C1070.05 290.73 1070.3 290.014 1070.46 289.207C1070.61 288.4 1070.69 287.54 1070.69 286.629ZM1089.13 297.391C1087.53 297.391 1086.09 297.13 1084.81 296.609C1083.54 296.089 1082.45 295.366 1081.55 294.441C1080.67 293.504 1079.98 292.417 1079.5 291.18C1079.03 289.93 1078.8 288.589 1078.8 287.156V286.375C1078.8 284.747 1079.03 283.27 1079.5 281.941C1079.97 280.6 1080.63 279.448 1081.49 278.484C1082.35 277.521 1083.38 276.779 1084.58 276.258C1085.78 275.737 1087.1 275.477 1088.54 275.477C1090.04 275.477 1091.36 275.73 1092.51 276.238C1093.65 276.733 1094.61 277.436 1095.38 278.348C1096.15 279.259 1096.73 280.353 1097.12 281.629C1097.51 282.892 1097.7 284.292 1097.7 285.828V287.996H1081.14V284.441H1092.62V284.051C1092.6 283.23 1092.44 282.482 1092.16 281.805C1091.87 281.115 1091.43 280.568 1090.83 280.164C1090.23 279.747 1089.45 279.539 1088.5 279.539C1087.74 279.539 1087.07 279.708 1086.49 280.047C1085.93 280.372 1085.46 280.841 1085.09 281.453C1084.72 282.052 1084.45 282.768 1084.27 283.602C1084.08 284.435 1083.99 285.359 1083.99 286.375V287.156C1083.99 288.042 1084.11 288.862 1084.34 289.617C1084.59 290.372 1084.95 291.03 1085.42 291.59C1085.9 292.137 1086.47 292.566 1087.14 292.879C1087.81 293.178 1088.58 293.328 1089.44 293.328C1090.52 293.328 1091.5 293.12 1092.37 292.703C1093.26 292.273 1094.02 291.642 1094.68 290.809L1097.27 293.504C1096.83 294.155 1096.23 294.78 1095.48 295.379C1094.73 295.978 1093.84 296.466 1092.78 296.844C1091.73 297.208 1090.51 297.391 1089.13 297.391ZM1106.32 280.184V297H1101.16V275.867H1106.04L1106.32 280.184ZM1112.74 275.73L1112.66 280.535C1112.38 280.483 1112.05 280.444 1111.69 280.418C1111.34 280.392 1111 280.379 1110.69 280.379C1109.9 280.379 1109.2 280.49 1108.6 280.711C1108 280.919 1107.5 281.225 1107.1 281.629C1106.71 282.033 1106.41 282.527 1106.2 283.113C1105.99 283.686 1105.87 284.337 1105.85 285.066L1104.73 284.93C1104.73 283.589 1104.87 282.345 1105.14 281.199C1105.42 280.053 1105.82 279.051 1106.34 278.191C1106.86 277.332 1107.51 276.668 1108.29 276.199C1109.08 275.717 1109.99 275.477 1111.02 275.477C1111.31 275.477 1111.62 275.503 1111.94 275.555C1112.28 275.594 1112.55 275.652 1112.74 275.73ZM1137.16 268.562V297H1131.8V268.562H1137.16ZM1145.98 268.562V272.801H1123.07V268.562H1145.98ZM1156.82 297.391C1155.22 297.391 1153.78 297.13 1152.51 296.609C1151.23 296.089 1150.14 295.366 1149.25 294.441C1148.36 293.504 1147.68 292.417 1147.2 291.18C1146.73 289.93 1146.49 288.589 1146.49 287.156V286.375C1146.49 284.747 1146.73 283.27 1147.2 281.941C1147.66 280.6 1148.33 279.448 1149.19 278.484C1150.05 277.521 1151.08 276.779 1152.27 276.258C1153.47 275.737 1154.79 275.477 1156.24 275.477C1157.74 275.477 1159.06 275.73 1160.2 276.238C1161.35 276.733 1162.31 277.436 1163.07 278.348C1163.84 279.259 1164.42 280.353 1164.81 281.629C1165.2 282.892 1165.4 284.292 1165.4 285.828V287.996H1148.84V284.441H1160.32V284.051C1160.29 283.23 1160.14 282.482 1159.85 281.805C1159.57 281.115 1159.12 280.568 1158.52 280.164C1157.92 279.747 1157.15 279.539 1156.2 279.539C1155.43 279.539 1154.76 279.708 1154.19 280.047C1153.63 280.372 1153.16 280.841 1152.78 281.453C1152.42 282.052 1152.14 282.768 1151.96 283.602C1151.78 284.435 1151.69 285.359 1151.69 286.375V287.156C1151.69 288.042 1151.8 288.862 1152.04 289.617C1152.29 290.372 1152.64 291.03 1153.11 291.59C1153.6 292.137 1154.17 292.566 1154.83 292.879C1155.51 293.178 1156.28 293.328 1157.14 293.328C1158.22 293.328 1159.19 293.12 1160.07 292.703C1160.95 292.273 1161.72 291.642 1162.37 290.809L1164.97 293.504C1164.53 294.155 1163.93 294.78 1163.17 295.379C1162.43 295.978 1161.53 296.466 1160.48 296.844C1159.42 297.208 1158.2 297.391 1156.82 297.391ZM1180.48 291.219C1180.48 290.776 1180.36 290.379 1180.12 290.027C1179.89 289.676 1179.45 289.357 1178.8 289.07C1178.16 288.771 1177.22 288.491 1175.98 288.23C1174.89 287.996 1173.88 287.703 1172.96 287.352C1172.03 287 1171.24 286.577 1170.57 286.082C1169.91 285.574 1169.39 284.982 1169.01 284.305C1168.65 283.615 1168.46 282.82 1168.46 281.922C1168.46 281.049 1168.65 280.229 1169.03 279.461C1169.41 278.68 1169.96 277.996 1170.67 277.41C1171.39 276.811 1172.26 276.342 1173.29 276.004C1174.32 275.652 1175.48 275.477 1176.77 275.477C1178.56 275.477 1180.11 275.77 1181.39 276.355C1182.7 276.941 1183.69 277.749 1184.38 278.777C1185.07 279.793 1185.42 280.939 1185.42 282.215H1180.26C1180.26 281.655 1180.13 281.147 1179.87 280.691C1179.62 280.236 1179.24 279.871 1178.72 279.598C1178.2 279.311 1177.54 279.168 1176.75 279.168C1176.03 279.168 1175.42 279.285 1174.93 279.52C1174.45 279.754 1174.08 280.06 1173.84 280.438C1173.59 280.815 1173.46 281.232 1173.46 281.688C1173.46 282.026 1173.53 282.332 1173.66 282.605C1173.8 282.866 1174.03 283.107 1174.34 283.328C1174.66 283.549 1175.08 283.751 1175.61 283.934C1176.16 284.116 1176.83 284.292 1177.62 284.461C1179.2 284.773 1180.57 285.19 1181.75 285.711C1182.93 286.219 1183.86 286.896 1184.52 287.742C1185.18 288.589 1185.52 289.669 1185.52 290.984C1185.52 291.922 1185.31 292.781 1184.91 293.562C1184.51 294.331 1183.92 295.001 1183.15 295.574C1182.38 296.147 1181.47 296.596 1180.4 296.922C1179.33 297.234 1178.13 297.391 1176.79 297.391C1174.85 297.391 1173.2 297.046 1171.86 296.355C1170.52 295.652 1169.51 294.767 1168.82 293.699C1168.13 292.618 1167.78 291.499 1167.78 290.34H1172.72C1172.76 291.16 1172.98 291.818 1173.39 292.312C1173.79 292.807 1174.3 293.165 1174.91 293.387C1175.54 293.595 1176.19 293.699 1176.88 293.699C1177.66 293.699 1178.32 293.595 1178.86 293.387C1179.39 293.165 1179.79 292.872 1180.07 292.508C1180.34 292.13 1180.48 291.701 1180.48 291.219ZM1199.44 275.867V279.578H1187.33V275.867H1199.44ZM1190.57 270.672H1195.75V290.906C1195.75 291.531 1195.83 292.013 1196 292.352C1196.17 292.69 1196.43 292.918 1196.77 293.035C1197.1 293.152 1197.51 293.211 1197.98 293.211C1198.32 293.211 1198.63 293.191 1198.91 293.152C1199.2 293.113 1199.44 293.074 1199.64 293.035L1199.66 296.902C1199.23 297.046 1198.74 297.163 1198.19 297.254C1197.66 297.345 1197.05 297.391 1196.38 297.391C1195.22 297.391 1194.2 297.195 1193.33 296.805C1192.46 296.401 1191.78 295.757 1191.3 294.871C1190.82 293.973 1190.57 292.788 1190.57 291.316V270.672ZM761.082 347H755.887V323.914C755.887 322.326 756.193 320.991 756.805 319.91C757.417 318.816 758.289 317.99 759.422 317.43C760.555 316.87 761.889 316.59 763.426 316.59C763.934 316.59 764.415 316.622 764.871 316.688C765.34 316.753 765.802 316.844 766.258 316.961L766.16 320.887C765.913 320.822 765.639 320.776 765.34 320.75C765.053 320.724 764.734 320.711 764.383 320.711C763.68 320.711 763.081 320.835 762.586 321.082C762.091 321.329 761.714 321.694 761.453 322.176C761.206 322.645 761.082 323.224 761.082 323.914V347ZM765.359 325.867V329.578H752.703V325.867H765.359ZM767.625 336.648V336.238C767.625 334.689 767.846 333.263 768.289 331.961C768.732 330.646 769.376 329.507 770.223 328.543C771.069 327.579 772.104 326.831 773.328 326.297C774.552 325.75 775.945 325.477 777.508 325.477C779.096 325.477 780.503 325.75 781.727 326.297C782.964 326.831 784.005 327.579 784.852 328.543C785.698 329.507 786.342 330.646 786.785 331.961C787.228 333.263 787.449 334.689 787.449 336.238V336.648C787.449 338.185 787.228 339.611 786.785 340.926C786.342 342.228 785.698 343.367 784.852 344.344C784.005 345.307 782.97 346.056 781.746 346.59C780.522 347.124 779.122 347.391 777.547 347.391C775.984 347.391 774.585 347.124 773.348 346.59C772.111 346.056 771.069 345.307 770.223 344.344C769.376 343.367 768.732 342.228 768.289 340.926C767.846 339.611 767.625 338.185 767.625 336.648ZM772.781 336.238V336.648C772.781 337.573 772.872 338.439 773.055 339.246C773.237 340.053 773.517 340.763 773.895 341.375C774.272 341.987 774.76 342.469 775.359 342.82C775.971 343.159 776.701 343.328 777.547 343.328C778.38 343.328 779.096 343.159 779.695 342.82C780.294 342.469 780.783 341.987 781.16 341.375C781.551 340.763 781.837 340.053 782.02 339.246C782.202 338.439 782.293 337.573 782.293 336.648V336.238C782.293 335.327 782.202 334.474 782.02 333.68C781.837 332.872 781.551 332.163 781.16 331.551C780.783 330.926 780.288 330.438 779.676 330.086C779.077 329.721 778.354 329.539 777.508 329.539C776.674 329.539 775.958 329.721 775.359 330.086C774.76 330.438 774.272 330.926 773.895 331.551C773.517 332.163 773.237 332.872 773.055 333.68C772.872 334.474 772.781 335.327 772.781 336.238ZM796.355 330.184V347H791.199V325.867H796.082L796.355 330.184ZM802.781 325.73L802.703 330.535C802.417 330.483 802.091 330.444 801.727 330.418C801.375 330.392 801.043 330.379 800.73 330.379C799.936 330.379 799.24 330.49 798.641 330.711C798.042 330.919 797.54 331.225 797.137 331.629C796.746 332.033 796.447 332.527 796.238 333.113C796.03 333.686 795.913 334.337 795.887 335.066L794.773 334.93C794.773 333.589 794.91 332.345 795.184 331.199C795.457 330.053 795.854 329.051 796.375 328.191C796.896 327.332 797.547 326.668 798.328 326.199C799.122 325.717 800.034 325.477 801.062 325.477C801.349 325.477 801.655 325.503 801.98 325.555C802.319 325.594 802.586 325.652 802.781 325.73ZM1210.16 344.48C1210.16 343.699 1210.43 343.042 1210.96 342.508C1211.5 341.974 1212.22 341.707 1213.13 341.707C1214.04 341.707 1214.77 341.974 1215.3 342.508C1215.83 343.042 1216.1 343.699 1216.1 344.48C1216.1 345.249 1215.83 345.9 1215.3 346.434C1214.77 346.954 1214.04 347.215 1213.13 347.215C1212.22 347.215 1211.5 346.954 1210.96 346.434C1210.43 345.9 1210.16 345.249 1210.16 344.48Z" fill="#313E4F"/>
<path d="M824.461 347H818.328L818.367 342.781H824.461C826.115 342.781 827.501 342.417 828.621 341.688C829.741 340.945 830.587 339.884 831.16 338.504C831.733 337.111 832.02 335.444 832.02 333.504V332.039C832.02 330.542 831.857 329.22 831.531 328.074C831.206 326.928 830.724 325.965 830.086 325.184C829.461 324.402 828.686 323.81 827.762 323.406C826.837 323.003 825.776 322.801 824.578 322.801H818.211V318.562H824.578C826.479 318.562 828.211 318.882 829.773 319.52C831.349 320.158 832.71 321.076 833.855 322.273C835.014 323.458 835.9 324.878 836.512 326.531C837.137 328.185 837.449 330.034 837.449 332.078V333.504C837.449 335.535 837.137 337.384 836.512 339.051C835.9 340.704 835.014 342.124 833.855 343.309C832.71 344.493 831.342 345.405 829.754 346.043C828.165 346.681 826.401 347 824.461 347ZM821.336 318.562V347H815.965V318.562H821.336ZM840.711 336.648V336.238C840.711 334.689 840.932 333.263 841.375 331.961C841.818 330.646 842.462 329.507 843.309 328.543C844.155 327.579 845.19 326.831 846.414 326.297C847.638 325.75 849.031 325.477 850.594 325.477C852.182 325.477 853.589 325.75 854.812 326.297C856.049 326.831 857.091 327.579 857.938 328.543C858.784 329.507 859.428 330.646 859.871 331.961C860.314 333.263 860.535 334.689 860.535 336.238V336.648C860.535 338.185 860.314 339.611 859.871 340.926C859.428 342.228 858.784 343.367 857.938 344.344C857.091 345.307 856.056 346.056 854.832 346.59C853.608 347.124 852.208 347.391 850.633 347.391C849.07 347.391 847.671 347.124 846.434 346.59C845.197 346.056 844.155 345.307 843.309 344.344C842.462 343.367 841.818 342.228 841.375 340.926C840.932 339.611 840.711 338.185 840.711 336.648ZM845.867 336.238V336.648C845.867 337.573 845.958 338.439 846.141 339.246C846.323 340.053 846.603 340.763 846.98 341.375C847.358 341.987 847.846 342.469 848.445 342.82C849.057 343.159 849.786 343.328 850.633 343.328C851.466 343.328 852.182 343.159 852.781 342.82C853.38 342.469 853.868 341.987 854.246 341.375C854.637 340.763 854.923 340.053 855.105 339.246C855.288 338.439 855.379 337.573 855.379 336.648V336.238C855.379 335.327 855.288 334.474 855.105 333.68C854.923 332.872 854.637 332.163 854.246 331.551C853.868 330.926 853.374 330.438 852.762 330.086C852.163 329.721 851.44 329.539 850.594 329.539C849.76 329.539 849.044 329.721 848.445 330.086C847.846 330.438 847.358 330.926 846.98 331.551C846.603 332.163 846.323 332.872 846.141 333.68C845.958 334.474 845.867 335.327 845.867 336.238ZM877.723 325.867H882.41V346.355C882.41 348.27 881.993 349.891 881.16 351.219C880.34 352.56 879.188 353.576 877.703 354.266C876.219 354.969 874.493 355.32 872.527 355.32C871.681 355.32 870.763 355.203 869.773 354.969C868.797 354.734 867.853 354.363 866.941 353.855C866.043 353.361 865.294 352.716 864.695 351.922L867.02 348.875C867.723 349.695 868.517 350.314 869.402 350.73C870.288 351.16 871.245 351.375 872.273 351.375C873.315 351.375 874.201 351.18 874.93 350.789C875.672 350.411 876.238 349.852 876.629 349.109C877.033 348.38 877.234 347.482 877.234 346.414V330.691L877.723 325.867ZM863.445 336.688V336.277C863.445 334.663 863.641 333.198 864.031 331.883C864.422 330.555 864.982 329.415 865.711 328.465C866.453 327.514 867.345 326.779 868.387 326.258C869.441 325.737 870.626 325.477 871.941 325.477C873.335 325.477 874.507 325.73 875.457 326.238C876.421 326.746 877.215 327.469 877.84 328.406C878.478 329.344 878.973 330.457 879.324 331.746C879.689 333.022 879.969 334.428 880.164 335.965V337.078C879.982 338.576 879.689 339.949 879.285 341.199C878.895 342.449 878.374 343.543 877.723 344.48C877.072 345.405 876.264 346.121 875.301 346.629C874.337 347.137 873.204 347.391 871.902 347.391C870.6 347.391 869.428 347.124 868.387 346.59C867.345 346.056 866.453 345.307 865.711 344.344C864.982 343.38 864.422 342.247 864.031 340.945C863.641 339.643 863.445 338.224 863.445 336.688ZM868.602 336.277V336.688C868.602 337.599 868.693 338.452 868.875 339.246C869.057 340.04 869.337 340.743 869.715 341.355C870.092 341.954 870.568 342.423 871.141 342.762C871.714 343.1 872.397 343.27 873.191 343.27C874.259 343.27 875.132 343.048 875.809 342.605C876.499 342.15 877.02 341.531 877.371 340.75C877.736 339.956 877.97 339.064 878.074 338.074V335.008C878.009 334.227 877.866 333.504 877.645 332.84C877.436 332.176 877.143 331.603 876.766 331.121C876.388 330.639 875.906 330.262 875.32 329.988C874.734 329.715 874.038 329.578 873.23 329.578C872.449 329.578 871.766 329.754 871.18 330.105C870.594 330.444 870.112 330.919 869.734 331.531C869.357 332.143 869.07 332.853 868.875 333.66C868.693 334.467 868.602 335.34 868.602 336.277ZM908.66 342.508V332.762C908.66 332.046 908.536 331.427 908.289 330.906C908.042 330.385 907.664 329.982 907.156 329.695C906.648 329.409 906.004 329.266 905.223 329.266C904.533 329.266 903.927 329.383 903.406 329.617C902.898 329.852 902.508 330.184 902.234 330.613C901.961 331.03 901.824 331.512 901.824 332.059H896.648C896.648 331.186 896.857 330.359 897.273 329.578C897.69 328.784 898.283 328.081 899.051 327.469C899.832 326.844 900.763 326.355 901.844 326.004C902.938 325.652 904.161 325.477 905.516 325.477C907.117 325.477 908.543 325.75 909.793 326.297C911.056 326.831 912.046 327.638 912.762 328.719C913.491 329.799 913.855 331.16 913.855 332.801V342.02C913.855 343.074 913.921 343.979 914.051 344.734C914.194 345.477 914.402 346.121 914.676 346.668V347H909.422C909.174 346.466 908.986 345.789 908.855 344.969C908.725 344.135 908.66 343.315 908.66 342.508ZM909.383 334.129L909.422 337.195H906.16C905.353 337.195 904.643 337.28 904.031 337.449C903.419 337.605 902.918 337.84 902.527 338.152C902.137 338.452 901.844 338.816 901.648 339.246C901.453 339.663 901.355 340.138 901.355 340.672C901.355 341.193 901.473 341.661 901.707 342.078C901.954 342.495 902.306 342.827 902.762 343.074C903.23 343.309 903.777 343.426 904.402 343.426C905.314 343.426 906.108 343.243 906.785 342.879C907.462 342.501 907.99 342.046 908.367 341.512C908.745 340.978 908.947 340.47 908.973 339.988L910.457 342.215C910.275 342.749 910.001 343.315 909.637 343.914C909.272 344.513 908.803 345.073 908.23 345.594C907.658 346.115 906.967 346.544 906.16 346.883C905.353 347.221 904.415 347.391 903.348 347.391C901.98 347.391 900.757 347.117 899.676 346.57C898.595 346.023 897.742 345.275 897.117 344.324C896.492 343.374 896.18 342.293 896.18 341.082C896.18 339.962 896.388 338.973 896.805 338.113C897.221 337.254 897.84 336.531 898.66 335.945C899.48 335.346 900.496 334.897 901.707 334.598C902.931 334.285 904.331 334.129 905.906 334.129H909.383ZM923.562 330.379V347H918.406V325.867H923.25L923.562 330.379ZM922.742 335.672H921.219C921.232 334.135 921.44 332.742 921.844 331.492C922.247 330.242 922.814 329.168 923.543 328.27C924.285 327.371 925.164 326.681 926.18 326.199C927.195 325.717 928.328 325.477 929.578 325.477C930.594 325.477 931.512 325.62 932.332 325.906C933.152 326.193 933.855 326.648 934.441 327.273C935.04 327.898 935.496 328.719 935.809 329.734C936.134 330.737 936.297 331.974 936.297 333.445V347H931.102V333.406C931.102 332.443 930.958 331.681 930.672 331.121C930.398 330.561 929.995 330.164 929.461 329.93C928.94 329.695 928.296 329.578 927.527 329.578C926.733 329.578 926.036 329.741 925.438 330.066C924.852 330.379 924.357 330.815 923.953 331.375C923.562 331.935 923.263 332.579 923.055 333.309C922.846 334.038 922.742 334.826 922.742 335.672ZM953.523 342.508V317H958.719V347H954.031L953.523 342.508ZM939.949 336.688V336.277C939.949 334.663 940.132 333.198 940.496 331.883C940.874 330.555 941.421 329.415 942.137 328.465C942.853 327.514 943.719 326.779 944.734 326.258C945.763 325.737 946.928 325.477 948.23 325.477C949.493 325.477 950.594 325.73 951.531 326.238C952.482 326.746 953.289 327.469 953.953 328.406C954.63 329.344 955.171 330.457 955.574 331.746C955.978 333.022 956.271 334.428 956.453 335.965V337.078C956.271 338.576 955.978 339.949 955.574 341.199C955.171 342.449 954.63 343.543 953.953 344.48C953.289 345.405 952.482 346.121 951.531 346.629C950.581 347.137 949.467 347.391 948.191 347.391C946.902 347.391 945.743 347.124 944.715 346.59C943.699 346.056 942.833 345.307 942.117 344.344C941.414 343.38 940.874 342.247 940.496 340.945C940.132 339.643 939.949 338.224 939.949 336.688ZM945.125 336.277V336.688C945.125 337.599 945.203 338.452 945.359 339.246C945.516 340.04 945.77 340.743 946.121 341.355C946.473 341.954 946.922 342.423 947.469 342.762C948.029 343.1 948.706 343.27 949.5 343.27C950.516 343.27 951.349 343.048 952 342.605C952.664 342.15 953.178 341.531 953.543 340.75C953.908 339.956 954.142 339.064 954.246 338.074V335.008C954.194 334.227 954.057 333.504 953.836 332.84C953.628 332.176 953.328 331.603 952.938 331.121C952.56 330.639 952.091 330.262 951.531 329.988C950.971 329.715 950.307 329.578 949.539 329.578C948.745 329.578 948.068 329.754 947.508 330.105C946.948 330.444 946.492 330.919 946.141 331.531C945.789 332.143 945.529 332.853 945.359 333.66C945.203 334.467 945.125 335.34 945.125 336.277ZM984.676 336.629H977.352V332.41H984.676C985.874 332.41 986.844 332.215 987.586 331.824C988.341 331.421 988.895 330.874 989.246 330.184C989.598 329.48 989.773 328.68 989.773 327.781C989.773 326.909 989.598 326.095 989.246 325.34C988.895 324.585 988.341 323.973 987.586 323.504C986.844 323.035 985.874 322.801 984.676 322.801H979.109V347H973.738V318.562H984.676C986.889 318.562 988.777 318.96 990.34 319.754C991.915 320.535 993.113 321.622 993.934 323.016C994.767 324.396 995.184 325.971 995.184 327.742C995.184 329.578 994.767 331.16 993.934 332.488C993.113 333.816 991.915 334.839 990.34 335.555C988.777 336.271 986.889 336.629 984.676 336.629ZM997.82 336.648V336.238C997.82 334.689 998.042 333.263 998.484 331.961C998.927 330.646 999.572 329.507 1000.42 328.543C1001.26 327.579 1002.3 326.831 1003.52 326.297C1004.75 325.75 1006.14 325.477 1007.7 325.477C1009.29 325.477 1010.7 325.75 1011.92 326.297C1013.16 326.831 1014.2 327.579 1015.05 328.543C1015.89 329.507 1016.54 330.646 1016.98 331.961C1017.42 333.263 1017.64 334.689 1017.64 336.238V336.648C1017.64 338.185 1017.42 339.611 1016.98 340.926C1016.54 342.228 1015.89 343.367 1015.05 344.344C1014.2 345.307 1013.17 346.056 1011.94 346.59C1010.72 347.124 1009.32 347.391 1007.74 347.391C1006.18 347.391 1004.78 347.124 1003.54 346.59C1002.31 346.056 1001.26 345.307 1000.42 344.344C999.572 343.367 998.927 342.228 998.484 340.926C998.042 339.611 997.82 338.185 997.82 336.648ZM1002.98 336.238V336.648C1002.98 337.573 1003.07 338.439 1003.25 339.246C1003.43 340.053 1003.71 340.763 1004.09 341.375C1004.47 341.987 1004.96 342.469 1005.55 342.82C1006.17 343.159 1006.9 343.328 1007.74 343.328C1008.58 343.328 1009.29 343.159 1009.89 342.82C1010.49 342.469 1010.98 341.987 1011.36 341.375C1011.75 340.763 1012.03 340.053 1012.21 339.246C1012.4 338.439 1012.49 337.573 1012.49 336.648V336.238C1012.49 335.327 1012.4 334.474 1012.21 333.68C1012.03 332.872 1011.75 332.163 1011.36 331.551C1010.98 330.926 1010.48 330.438 1009.87 330.086C1009.27 329.721 1008.55 329.539 1007.7 329.539C1006.87 329.539 1006.15 329.721 1005.55 330.086C1004.96 330.438 1004.47 330.926 1004.09 331.551C1003.71 332.163 1003.43 332.872 1003.25 333.68C1003.07 334.474 1002.98 335.327 1002.98 336.238ZM1026.45 330.379V347H1021.3V325.867H1026.14L1026.45 330.379ZM1025.63 335.672H1024.11C1024.12 334.135 1024.33 332.742 1024.73 331.492C1025.14 330.242 1025.7 329.168 1026.43 328.27C1027.18 327.371 1028.05 326.681 1029.07 326.199C1030.09 325.717 1031.22 325.477 1032.47 325.477C1033.48 325.477 1034.4 325.62 1035.22 325.906C1036.04 326.193 1036.75 326.648 1037.33 327.273C1037.93 327.898 1038.39 328.719 1038.7 329.734C1039.02 330.737 1039.19 331.974 1039.19 333.445V347H1033.99V333.406C1033.99 332.443 1033.85 331.681 1033.56 331.121C1033.29 330.561 1032.89 330.164 1032.35 329.93C1031.83 329.695 1031.19 329.578 1030.42 329.578C1029.62 329.578 1028.93 329.741 1028.33 330.066C1027.74 330.379 1027.25 330.815 1026.84 331.375C1026.45 331.935 1026.15 332.579 1025.95 333.309C1025.74 334.038 1025.63 334.826 1025.63 335.672ZM1049.93 344.656L1055.59 325.867H1061.12L1052.64 350.203C1052.45 350.724 1052.2 351.29 1051.88 351.902C1051.58 352.514 1051.18 353.094 1050.67 353.641C1050.16 354.201 1049.53 354.656 1048.76 355.008C1048 355.359 1047.08 355.535 1046 355.535C1045.54 355.535 1045.12 355.503 1044.75 355.438C1044.39 355.372 1044.01 355.288 1043.6 355.184V351.316C1043.73 351.329 1043.88 351.336 1044.05 351.336C1044.23 351.349 1044.39 351.355 1044.52 351.355C1045.27 351.355 1045.9 351.264 1046.39 351.082C1046.89 350.913 1047.29 350.633 1047.59 350.242C1047.9 349.865 1048.16 349.37 1048.37 348.758L1049.93 344.656ZM1047.14 325.867L1051.92 341.434L1052.76 346.883L1049.21 347.527L1041.57 325.867H1047.14ZM1088.86 339.617C1088.86 339.07 1088.77 338.582 1088.6 338.152C1088.45 337.71 1088.15 337.312 1087.72 336.961C1087.31 336.596 1086.71 336.245 1085.95 335.906C1085.19 335.555 1084.21 335.19 1083.02 334.812C1081.69 334.396 1080.45 333.927 1079.3 333.406C1078.16 332.885 1077.15 332.28 1076.28 331.59C1075.42 330.9 1074.75 330.105 1074.27 329.207C1073.78 328.296 1073.54 327.241 1073.54 326.043C1073.54 324.871 1073.79 323.803 1074.29 322.84C1074.79 321.876 1075.51 321.049 1076.43 320.359C1077.36 319.656 1078.45 319.116 1079.7 318.738C1080.96 318.361 1082.35 318.172 1083.88 318.172C1085.98 318.172 1087.81 318.556 1089.34 319.324C1090.89 320.092 1092.09 321.134 1092.94 322.449C1093.78 323.764 1094.21 325.242 1094.21 326.883H1088.86C1088.86 325.997 1088.67 325.216 1088.29 324.539C1087.92 323.862 1087.36 323.328 1086.61 322.938C1085.87 322.547 1084.93 322.352 1083.8 322.352C1082.7 322.352 1081.79 322.514 1081.06 322.84C1080.35 323.165 1079.81 323.608 1079.44 324.168C1079.09 324.728 1078.91 325.353 1078.91 326.043C1078.91 326.564 1079.04 327.033 1079.29 327.449C1079.53 327.853 1079.9 328.237 1080.4 328.602C1080.89 328.953 1081.51 329.285 1082.23 329.598C1082.98 329.897 1083.84 330.197 1084.81 330.496C1086.38 330.965 1087.74 331.486 1088.91 332.059C1090.1 332.632 1091.08 333.283 1091.86 334.012C1092.66 334.741 1093.25 335.561 1093.64 336.473C1094.04 337.384 1094.25 338.419 1094.25 339.578C1094.25 340.802 1094.01 341.896 1093.52 342.859C1093.04 343.823 1092.35 344.643 1091.45 345.32C1090.55 345.997 1089.47 346.512 1088.21 346.863C1086.96 347.215 1085.56 347.391 1084.01 347.391C1082.63 347.391 1081.26 347.208 1079.91 346.844C1078.57 346.466 1077.35 345.906 1076.26 345.164C1075.16 344.409 1074.29 343.458 1073.64 342.312C1072.99 341.154 1072.66 339.799 1072.66 338.25H1078.05C1078.05 339.148 1078.2 339.917 1078.48 340.555C1078.78 341.18 1079.2 341.694 1079.73 342.098C1080.28 342.488 1080.92 342.775 1081.65 342.957C1082.38 343.139 1083.17 343.23 1084.01 343.23C1085.11 343.23 1086 343.081 1086.71 342.781C1087.42 342.469 1087.96 342.039 1088.31 341.492C1088.67 340.945 1088.86 340.32 1088.86 339.617ZM1108 325.867V329.578H1095.89V325.867H1108ZM1099.13 320.672H1104.3V340.906C1104.3 341.531 1104.39 342.013 1104.56 342.352C1104.73 342.69 1104.98 342.918 1105.32 343.035C1105.66 343.152 1106.06 343.211 1106.53 343.211C1106.87 343.211 1107.18 343.191 1107.47 343.152C1107.76 343.113 1108 343.074 1108.19 343.035L1108.21 346.902C1107.78 347.046 1107.29 347.163 1106.75 347.254C1106.21 347.345 1105.61 347.391 1104.93 347.391C1103.77 347.391 1102.76 347.195 1101.88 346.805C1101.01 346.401 1100.33 345.757 1099.85 344.871C1099.37 343.973 1099.13 342.788 1099.13 341.316V320.672ZM1124.01 341.98V325.867H1129.21V347H1124.32L1124.01 341.98ZM1124.68 337.605L1126.28 337.566C1126.28 338.986 1126.12 340.294 1125.81 341.492C1125.5 342.69 1125.01 343.732 1124.34 344.617C1123.69 345.49 1122.87 346.173 1121.86 346.668C1120.86 347.15 1119.68 347.391 1118.31 347.391C1117.27 347.391 1116.32 347.247 1115.46 346.961C1114.6 346.661 1113.86 346.199 1113.23 345.574C1112.62 344.936 1112.14 344.122 1111.8 343.133C1111.47 342.13 1111.3 340.926 1111.3 339.52V325.867H1116.45V339.559C1116.45 340.262 1116.53 340.848 1116.69 341.316C1116.86 341.785 1117.08 342.169 1117.37 342.469C1117.67 342.755 1118.02 342.964 1118.41 343.094C1118.81 343.211 1119.24 343.27 1119.7 343.27C1120.95 343.27 1121.93 343.022 1122.64 342.527C1123.37 342.02 1123.89 341.342 1124.21 340.496C1124.52 339.637 1124.68 338.673 1124.68 337.605ZM1146.45 342.508V317H1151.65V347H1146.96L1146.45 342.508ZM1132.88 336.688V336.277C1132.88 334.663 1133.06 333.198 1133.43 331.883C1133.8 330.555 1134.35 329.415 1135.07 328.465C1135.78 327.514 1136.65 326.779 1137.66 326.258C1138.69 325.737 1139.86 325.477 1141.16 325.477C1142.42 325.477 1143.52 325.73 1144.46 326.238C1145.41 326.746 1146.22 327.469 1146.88 328.406C1147.56 329.344 1148.1 330.457 1148.5 331.746C1148.91 333.022 1149.2 334.428 1149.38 335.965V337.078C1149.2 338.576 1148.91 339.949 1148.5 341.199C1148.1 342.449 1147.56 343.543 1146.88 344.48C1146.22 345.405 1145.41 346.121 1144.46 346.629C1143.51 347.137 1142.4 347.391 1141.12 347.391C1139.83 347.391 1138.67 347.124 1137.64 346.59C1136.63 346.056 1135.76 345.307 1135.05 344.344C1134.34 343.38 1133.8 342.247 1133.43 340.945C1133.06 339.643 1132.88 338.224 1132.88 336.688ZM1138.05 336.277V336.688C1138.05 337.599 1138.13 338.452 1138.29 339.246C1138.45 340.04 1138.7 340.743 1139.05 341.355C1139.4 341.954 1139.85 342.423 1140.4 342.762C1140.96 343.1 1141.64 343.27 1142.43 343.27C1143.45 343.27 1144.28 343.048 1144.93 342.605C1145.59 342.15 1146.11 341.531 1146.47 340.75C1146.84 339.956 1147.07 339.064 1147.18 338.074V335.008C1147.12 334.227 1146.99 333.504 1146.77 332.84C1146.56 332.176 1146.26 331.603 1145.87 331.121C1145.49 330.639 1145.02 330.262 1144.46 329.988C1143.9 329.715 1143.24 329.578 1142.47 329.578C1141.67 329.578 1141 329.754 1140.44 330.105C1139.88 330.444 1139.42 330.919 1139.07 331.531C1138.72 332.143 1138.46 332.853 1138.29 333.66C1138.13 334.467 1138.05 335.34 1138.05 336.277ZM1161.79 325.867V347H1156.61V325.867H1161.79ZM1156.26 320.34C1156.26 319.572 1156.52 318.934 1157.04 318.426C1157.57 317.918 1158.29 317.664 1159.19 317.664C1160.09 317.664 1160.8 317.918 1161.32 318.426C1161.85 318.934 1162.12 319.572 1162.12 320.34C1162.12 321.095 1161.85 321.727 1161.32 322.234C1160.8 322.742 1160.09 322.996 1159.19 322.996C1158.29 322.996 1157.57 322.742 1157.04 322.234C1156.52 321.727 1156.26 321.095 1156.26 320.34ZM1165.79 336.648V336.238C1165.79 334.689 1166.01 333.263 1166.45 331.961C1166.9 330.646 1167.54 329.507 1168.39 328.543C1169.23 327.579 1170.27 326.831 1171.49 326.297C1172.72 325.75 1174.11 325.477 1175.67 325.477C1177.26 325.477 1178.67 325.75 1179.89 326.297C1181.13 326.831 1182.17 327.579 1183.02 328.543C1183.86 329.507 1184.51 330.646 1184.95 331.961C1185.39 333.263 1185.61 334.689 1185.61 336.238V336.648C1185.61 338.185 1185.39 339.611 1184.95 340.926C1184.51 342.228 1183.86 343.367 1183.02 344.344C1182.17 345.307 1181.13 346.056 1179.91 346.59C1178.69 347.124 1177.29 347.391 1175.71 347.391C1174.15 347.391 1172.75 347.124 1171.51 346.59C1170.27 346.056 1169.23 345.307 1168.39 344.344C1167.54 343.367 1166.9 342.228 1166.45 340.926C1166.01 339.611 1165.79 338.185 1165.79 336.648ZM1170.95 336.238V336.648C1170.95 337.573 1171.04 338.439 1171.22 339.246C1171.4 340.053 1171.68 340.763 1172.06 341.375C1172.44 341.987 1172.92 342.469 1173.52 342.82C1174.14 343.159 1174.86 343.328 1175.71 343.328C1176.54 343.328 1177.26 343.159 1177.86 342.82C1178.46 342.469 1178.95 341.987 1179.32 341.375C1179.71 340.763 1180 340.053 1180.18 339.246C1180.37 338.439 1180.46 337.573 1180.46 336.648V336.238C1180.46 335.327 1180.37 334.474 1180.18 333.68C1180 332.872 1179.71 332.163 1179.32 331.551C1178.95 330.926 1178.45 330.438 1177.84 330.086C1177.24 329.721 1176.52 329.539 1175.67 329.539C1174.84 329.539 1174.12 329.721 1173.52 330.086C1172.92 330.438 1172.44 330.926 1172.06 331.551C1171.68 332.163 1171.4 332.872 1171.22 333.68C1171.04 334.474 1170.95 335.327 1170.95 336.238ZM1200.98 341.219C1200.98 340.776 1200.87 340.379 1200.63 340.027C1200.4 339.676 1199.96 339.357 1199.3 339.07C1198.67 338.771 1197.73 338.491 1196.49 338.23C1195.4 337.996 1194.39 337.703 1193.46 337.352C1192.54 337 1191.75 336.577 1191.08 336.082C1190.42 335.574 1189.9 334.982 1189.52 334.305C1189.15 333.615 1188.97 332.82 1188.97 331.922C1188.97 331.049 1189.16 330.229 1189.54 329.461C1189.92 328.68 1190.46 327.996 1191.18 327.41C1191.9 326.811 1192.77 326.342 1193.8 326.004C1194.83 325.652 1195.98 325.477 1197.27 325.477C1199.07 325.477 1200.61 325.77 1201.9 326.355C1203.2 326.941 1204.2 327.749 1204.89 328.777C1205.58 329.793 1205.93 330.939 1205.93 332.215H1200.77C1200.77 331.655 1200.64 331.147 1200.38 330.691C1200.13 330.236 1199.75 329.871 1199.23 329.598C1198.71 329.311 1198.05 329.168 1197.25 329.168C1196.54 329.168 1195.93 329.285 1195.44 329.52C1194.96 329.754 1194.59 330.06 1194.34 330.438C1194.1 330.815 1193.97 331.232 1193.97 331.688C1193.97 332.026 1194.04 332.332 1194.17 332.605C1194.31 332.866 1194.54 333.107 1194.85 333.328C1195.16 333.549 1195.59 333.751 1196.12 333.934C1196.67 334.116 1197.34 334.292 1198.13 334.461C1199.71 334.773 1201.08 335.19 1202.25 335.711C1203.44 336.219 1204.36 336.896 1205.03 337.742C1205.69 338.589 1206.02 339.669 1206.02 340.984C1206.02 341.922 1205.82 342.781 1205.42 343.562C1205.01 344.331 1204.43 345.001 1203.66 345.574C1202.89 346.147 1201.97 346.596 1200.91 346.922C1199.84 347.234 1198.63 347.391 1197.29 347.391C1195.35 347.391 1193.71 347.046 1192.37 346.355C1191.03 345.652 1190.01 344.767 1189.32 343.699C1188.63 342.618 1188.29 341.499 1188.29 340.34H1193.23C1193.27 341.16 1193.49 341.818 1193.89 342.312C1194.3 342.807 1194.81 343.165 1195.42 343.387C1196.04 343.595 1196.7 343.699 1197.39 343.699C1198.17 343.699 1198.83 343.595 1199.36 343.387C1199.9 343.165 1200.3 342.872 1200.57 342.508C1200.85 342.13 1200.98 341.701 1200.98 341.219Z" fill="#33A6BA"/>
<g clip-path="url(#clip1_7975_1884)">
<path d="M255.401 325.905C255.815 326.113 255.815 326.737 255.608 327.153C255.608 327.153 254.988 328.194 253.954 330.275C253.333 331.315 252.506 332.355 251.679 333.812C250.645 335.06 249.611 336.725 248.163 338.39C245.474 341.719 241.545 345.464 236.581 349.002C231.618 352.539 225.413 355.66 218.175 357.741C216.314 358.157 214.452 358.573 212.384 358.99C211.35 359.198 210.316 359.198 209.282 359.406C208.248 359.614 207.214 359.614 206.18 359.822C205.146 359.822 204.319 360.03 203.284 360.03H203.078H202.871H202.457H201.63H199.975C198.941 360.03 197.907 360.03 196.873 360.03C195.839 360.03 194.805 359.822 193.564 359.614C184.878 358.573 175.985 355.452 167.713 350.458C167.092 350.042 166.678 349.834 166.058 349.418C161.094 349.626 154.27 353.996 143.515 359.406C132.968 364.608 123.661 373.139 110.632 382.503C69.8897 411.634 53.3447 418.917 49.2084 420.998C46.9334 422.038 58.3082 415.588 77.1282 403.935C93.2597 393.947 105.668 381.046 120.559 371.683C130.486 365.44 138.759 358.573 144.549 352.747C141.034 348.169 145.377 338.806 150.133 340.262C151.167 340.47 151.788 341.303 152.408 342.343C153.649 339.638 153.649 337.765 152.408 336.725C144.343 330.899 143.929 321.951 137.104 315.293C126.35 304.889 133.175 289.075 137.104 277.838C141.861 266.186 147.652 257.03 154.476 250.371C148.893 249.539 149.306 244.129 151.995 245.169C153.442 241.424 156.751 245.169 156.545 248.499C161.508 243.921 167.092 240.592 172.883 238.303C177.226 236.014 181.776 234.349 186.119 233.309C188.187 232.893 190.255 232.268 192.53 232.06C194.598 231.852 196.873 231.436 198.735 231.436C199.769 231.436 200.596 231.436 201.63 231.436H203.078C203.078 231.436 203.491 231.436 203.284 231.436H203.491H203.905H204.732C206.8 231.644 208.662 231.852 210.523 231.852C214.246 232.685 217.761 233.101 221.07 234.349C222.725 234.973 224.379 235.39 225.827 236.014C227.275 236.638 228.723 237.47 230.17 238.095C231.618 238.719 232.859 239.551 233.893 240.384C235.134 241.216 236.168 241.84 237.409 242.672C239.477 244.337 241.338 245.794 242.993 247.25C244.44 248.915 245.888 250.371 246.922 251.62C248.163 252.868 248.783 254.117 249.404 254.949C250.645 256.822 251.472 257.654 251.472 257.654C251.886 258.279 251.679 258.903 251.265 259.319C250.852 259.735 250.231 259.527 249.817 259.319C249.817 259.319 248.99 258.487 247.336 257.03C246.508 256.198 245.681 255.157 244.44 254.117C243.199 253.077 241.752 252.036 240.304 250.788C238.65 249.747 236.788 248.499 234.72 247.25C233.686 246.626 232.445 246.21 231.411 245.586C230.17 244.961 229.136 244.337 227.688 243.921C222.518 241.84 216.521 240.384 209.902 239.551C208.248 239.551 206.593 239.551 204.732 239.343H204.112H203.698H203.491H202.25C201.216 239.343 200.389 239.551 199.355 239.551C197.287 239.551 195.839 239.967 193.978 240.384C192.323 240.592 190.462 241.216 188.601 241.84C181.362 244.129 174.124 247.875 167.919 253.285C161.715 258.695 156.545 265.561 153.029 273.677C149.513 281.584 148.065 290.531 148.686 299.27C148.686 301.767 149.099 303.64 149.513 305.721C149.513 306.761 149.927 307.802 150.133 308.842L150.961 311.963C151.374 313.004 151.788 314.044 151.995 315.085C152.408 316.125 152.615 317.165 153.236 318.206C154.27 320.079 155.097 322.159 156.131 324.032L157.785 326.737L159.647 329.234C160.888 331.107 162.335 332.563 163.783 334.228C165.231 335.893 166.885 337.141 168.333 338.598C169.987 339.846 171.642 341.303 173.296 342.343C180.121 346.921 187.773 350.042 195.219 351.291C196.253 351.499 197.08 351.707 198.114 351.707C199.148 351.707 199.975 351.915 201.009 351.915C201.837 351.915 202.871 352.123 203.698 352.123C204.732 352.123 205.559 352.123 206.593 352.123C207.628 352.123 208.455 352.123 209.282 351.915C210.109 351.915 210.937 351.915 211.764 351.707C213.418 351.499 215.28 351.291 216.934 350.875C223.552 349.626 229.343 347.129 234.306 344.424C239.27 341.719 242.993 338.598 245.888 335.685C247.336 334.436 248.577 332.98 249.611 331.731C250.645 330.483 251.472 329.442 252.092 328.61C253.333 326.945 254.161 325.905 254.161 325.905C254.367 325.697 254.988 325.697 255.401 325.905ZM194.805 281.792C195.839 282.624 196.46 284.081 196.873 285.537C197.287 287.202 197.494 290.115 197.494 294.693C197.494 298.022 197.287 300.311 197.08 301.976C196.873 303.64 196.46 304.889 195.839 305.721C195.012 306.969 193.978 307.802 192.737 308.426C191.496 308.842 189.428 309.258 186.533 309.258H179.294V279.711H186.326C189.014 279.711 190.876 279.919 191.91 280.127C192.944 280.543 193.978 280.959 194.805 281.792ZM193.564 294.277C193.564 292.196 193.564 290.531 193.357 289.074C193.151 287.618 193.151 286.578 192.944 286.161C192.53 284.913 191.91 284.081 191.082 283.664C190.255 283.248 189.014 282.832 187.153 282.832H183.017V305.721H187.153C188.601 305.721 189.635 305.513 190.462 305.305C191.289 304.889 191.91 304.472 192.323 303.848C192.737 303.224 192.944 301.976 193.151 300.519C193.564 299.062 193.564 296.982 193.564 294.277ZM222.104 282C222.932 283.04 223.552 284.289 223.966 285.953C224.379 287.618 224.586 290.531 224.586 294.693C224.586 297.814 224.379 300.103 224.173 301.767C223.966 303.432 223.552 304.681 222.932 305.513C222.104 306.761 221.07 307.802 219.83 308.426C218.589 309.05 216.934 309.466 215.073 309.466C213.625 309.466 212.177 309.258 211.143 308.842C209.902 308.426 209.075 307.802 208.248 306.761C207.421 305.721 206.8 304.472 206.387 302.808C205.973 301.143 205.766 298.23 205.766 294.277C205.766 290.947 205.973 288.45 206.18 286.786C206.387 285.121 206.8 283.872 207.421 283.04C208.041 281.792 209.075 280.751 210.523 280.127C211.764 279.503 213.418 279.087 215.28 279.087C216.727 279.087 218.175 279.295 219.209 279.711C220.243 280.335 221.277 281.167 222.104 282ZM220.45 294.485C220.45 289.491 220.036 286.369 219.209 284.913C218.382 283.456 216.934 282.624 215.073 282.624C214.246 282.624 213.418 282.832 212.798 283.04C212.177 283.456 211.557 283.872 211.143 284.497C210.73 285.329 210.316 286.161 210.109 287.41C209.902 288.658 209.902 290.947 209.902 294.485C209.902 297.398 209.902 299.479 210.109 300.727C210.316 301.976 210.523 302.808 210.73 303.432C211.143 304.472 211.764 305.097 212.591 305.721C213.418 306.137 214.246 306.345 215.28 306.345C217.348 306.345 218.795 305.513 219.416 304.056C220.036 302.6 220.45 299.479 220.45 294.485ZM242.372 282.416C243.82 282.416 245.061 282.832 245.888 283.872C246.715 284.705 247.129 286.161 247.129 287.826H251.058C251.058 285.121 250.231 283.04 248.783 281.584C247.336 280.127 245.061 279.295 242.372 279.295C240.511 279.295 239.063 279.503 237.615 280.127C236.375 280.751 235.341 281.584 234.513 282.624C233.893 283.664 233.272 285.121 233.066 286.786C232.859 288.45 232.652 290.739 232.652 293.86C232.652 297.814 232.859 300.727 233.272 302.6C233.686 304.472 234.306 306.137 235.341 307.178C236.168 308.01 236.995 308.634 238.236 309.05C239.477 309.466 240.925 309.675 242.579 309.675C243.82 309.675 245.061 309.675 246.302 309.466C247.749 309.258 249.197 309.05 251.058 308.426V293.652H243.406V296.982H247.543V305.721C246.508 305.929 245.681 306.137 244.854 306.137C244.027 306.137 243.406 306.345 242.786 306.345C240.511 306.345 239.063 305.513 238.029 304.056C237.202 302.392 236.788 299.27 236.788 294.485C236.788 289.491 237.202 286.369 238.029 284.913C238.856 283.248 240.304 282.416 242.372 282.416ZM286.217 279.711L295.11 309.05H290.973L289.112 301.976H278.771L276.703 309.05H272.567L281.667 279.711H286.217ZM287.871 298.646L283.735 284.497L279.392 298.646H287.871ZM318.48 300.311C318.48 301.143 318.48 301.976 318.48 303.016C318.48 303.848 318.48 304.889 318.686 305.721L307.932 279.711H302.348V309.05H305.864V288.034C305.864 287.41 305.864 286.578 305.864 285.745C305.864 284.913 305.657 283.664 305.657 282.416L316.825 309.258H321.995V279.711H318.48V300.311ZM349.088 285.537C349.502 287.202 349.708 290.115 349.708 294.693C349.708 298.022 349.502 300.311 349.295 301.976C349.088 303.64 348.674 304.889 348.054 305.721C347.227 306.969 346.193 307.802 344.952 308.426C343.711 308.842 341.643 309.258 338.747 309.258H331.716V279.711H338.747C341.436 279.711 343.297 279.919 344.331 280.127C345.365 280.335 346.399 280.959 347.227 281.792C347.847 282.624 348.674 284.081 349.088 285.537ZM345.779 294.277C345.779 292.196 345.779 290.531 345.572 289.074C345.365 287.618 345.365 286.578 345.159 286.161C344.745 284.913 344.124 284.081 343.297 283.664C342.47 283.248 341.229 282.832 339.368 282.832H335.231V305.721H339.368C340.815 305.721 341.85 305.513 342.677 305.305C343.504 304.889 344.124 304.472 344.538 303.848C344.952 303.224 345.159 301.976 345.365 300.519C345.779 299.062 345.779 296.982 345.779 294.277ZM386.728 281.584C387.969 282.832 388.589 284.913 388.589 287.826C388.589 290.739 387.969 292.612 386.728 294.068C385.487 295.317 383.626 295.941 380.937 295.941H375.974V309.05H372.044V279.711H380.11C383.419 279.711 385.487 280.335 386.728 281.584ZM384.66 287.826C384.66 286.161 384.246 284.913 383.626 284.081C383.005 283.456 381.765 283.04 380.11 283.04H375.974V292.612H379.076C381.351 292.612 382.799 292.196 383.626 291.571C384.246 290.947 384.66 289.699 384.66 287.826ZM414.234 285.953C414.648 287.618 414.855 290.531 414.855 294.693C414.855 297.814 414.648 300.103 414.441 301.767C414.234 303.432 413.821 304.681 413.2 305.513C412.373 306.761 411.339 307.802 410.098 308.426C408.857 309.05 407.203 309.466 405.341 309.466C403.894 309.466 402.653 309.258 401.412 308.842C400.171 308.426 399.344 307.802 398.516 306.761C397.689 305.721 397.069 304.472 396.655 302.808C396.241 301.143 396.035 298.23 396.035 294.277C396.035 290.947 396.241 288.45 396.448 286.786C396.655 285.121 397.069 283.872 397.689 283.04C398.31 281.792 399.344 280.751 400.791 280.127C402.032 279.503 403.687 279.087 405.548 279.087C406.996 279.087 408.237 279.295 409.478 279.711C410.718 280.127 411.546 280.751 412.373 281.584C413.407 283.04 414.027 284.289 414.234 285.953ZM410.925 294.485C410.925 289.491 410.512 286.369 409.684 284.913C408.857 283.456 407.409 282.624 405.548 282.624C404.721 282.624 403.894 282.832 403.273 283.04C402.653 283.456 402.032 283.872 401.619 284.497C401.205 285.329 400.791 286.161 400.585 287.41C400.378 288.658 400.378 290.947 400.378 294.485C400.378 297.398 400.378 299.479 400.585 300.727C400.791 301.976 400.998 302.808 401.205 303.432C401.619 304.472 402.239 305.097 403.066 305.721C403.894 306.137 404.721 306.345 405.755 306.345C407.823 306.345 409.271 305.513 409.891 304.056C410.512 302.6 410.925 299.479 410.925 294.485ZM439.879 300.311C439.879 301.143 439.879 301.976 439.879 303.016C439.879 303.848 439.879 304.889 440.086 305.721L429.332 279.711H423.748V309.05H427.263V288.034C427.263 287.41 427.263 286.578 427.263 285.745C427.263 284.913 427.057 283.664 427.057 282.416L438.225 309.258H443.395V279.711H439.879V300.311ZM460.147 293.652L454.563 279.711H450.22L457.872 296.773V309.05H461.801V297.19L469.867 279.711H465.938L460.147 293.652ZM500.889 293.86C500.475 293.652 499.855 293.236 499.235 292.82C495.305 290.323 493.444 288.034 493.444 286.161C493.444 285.121 493.857 284.081 494.685 283.248C495.512 282.416 496.546 282 497.994 282C499.441 282 500.475 282.416 501.303 283.248C501.923 284.081 502.337 285.329 502.337 286.786V287.41H506.266V286.578C506.266 284.081 505.646 282.208 504.198 280.751C502.75 279.503 500.682 278.67 498.201 278.67C495.719 278.67 493.444 279.295 491.996 280.751C490.342 282.208 489.514 283.872 489.514 286.161C489.514 287.826 489.928 289.283 490.755 290.323C491.582 291.363 493.237 293.028 496.132 294.693C496.339 294.901 496.753 295.109 497.373 295.525C501.096 297.814 502.75 299.687 502.75 301.559C502.75 302.808 502.337 303.848 501.303 304.681C500.475 305.513 499.235 305.929 497.787 305.929C496.339 305.929 495.098 305.513 494.478 304.681C493.857 303.848 493.444 302.392 493.444 300.519V299.895H489.308C489.308 300.103 489.308 300.103 489.308 300.311C489.308 300.519 489.308 300.727 489.308 300.727C489.308 303.432 489.928 305.513 491.376 306.761C492.823 308.218 494.892 308.842 497.787 308.842C500.682 308.842 502.75 308.218 504.405 306.761C506.059 305.305 506.68 303.432 506.68 300.727C506.68 299.27 506.266 298.022 505.646 296.982C504.612 296.773 503.164 295.525 500.889 293.86ZM513.505 282.832H520.743V309.258H524.673V282.832H531.704V279.711H513.712V282.832H513.505ZM553.213 298.022V298.646C553.213 300.311 553.213 301.351 553.006 301.976C552.799 302.6 552.592 303.224 552.386 303.848C551.972 304.681 551.352 305.305 550.524 305.721C549.697 306.137 548.87 306.345 547.836 306.345C546.802 306.345 545.974 306.137 545.147 305.721C544.32 305.305 543.699 304.681 543.286 303.848C543.079 303.432 542.665 302.808 542.665 301.976C542.459 301.351 542.459 300.103 542.459 298.438V279.503H538.736V297.19V298.022C538.736 300.311 538.943 301.976 539.15 303.016C539.356 304.056 539.77 305.097 540.39 305.929C541.218 306.969 542.252 307.802 543.493 308.426C544.734 309.05 546.181 309.258 547.836 309.258C551.145 309.258 553.42 308.426 554.867 306.553C556.315 304.681 556.936 301.767 556.936 297.814V279.295H553.213V298.022ZM583.821 285.537C584.235 287.202 584.442 290.115 584.442 294.693C584.442 298.022 584.235 300.311 584.028 301.976C583.821 303.64 583.408 304.889 582.787 305.721C581.96 306.969 580.926 307.802 579.685 308.426C578.444 308.842 576.376 309.258 573.481 309.258H566.449V279.711H573.481C576.169 279.711 578.03 279.919 579.065 280.127C580.099 280.335 581.133 280.959 581.96 281.792C582.787 282.624 583.408 284.081 583.821 285.537ZM580.719 294.277C580.719 292.196 580.719 290.531 580.512 289.074C580.305 287.618 580.305 286.578 580.099 286.161C579.685 284.913 579.065 284.081 578.237 283.664C577.41 283.248 576.169 282.832 574.308 282.832H570.172V305.721H574.308C575.756 305.721 576.79 305.513 577.617 305.305C578.444 304.889 579.065 304.472 579.478 303.848C579.892 303.224 580.099 301.976 580.305 300.519C580.512 299.062 580.719 296.982 580.719 294.277ZM593.128 309.05H597.057V279.711H593.128V309.05ZM624.15 285.953C624.564 287.618 624.77 290.531 624.77 294.693C624.77 297.814 624.564 300.103 624.357 301.767C624.15 303.432 623.736 304.681 623.116 305.513C622.289 306.761 621.255 307.802 620.014 308.426C618.773 309.05 617.118 309.466 615.257 309.466C613.809 309.466 612.568 309.258 611.327 308.842C610.087 308.426 609.259 307.802 608.432 306.761C607.605 305.721 606.984 304.472 606.571 302.808C606.157 301.143 605.95 298.23 605.95 294.277C605.95 290.947 606.157 288.45 606.364 286.786C606.571 285.121 606.984 283.872 607.605 283.04C608.225 281.792 609.259 280.751 610.707 280.127C611.948 279.503 613.602 279.087 615.464 279.087C616.911 279.087 618.152 279.295 619.393 279.711C620.634 280.127 621.461 280.751 622.289 281.584C623.116 283.04 623.736 284.289 624.15 285.953ZM620.841 294.485C620.841 289.491 620.427 286.369 619.6 284.913C618.773 283.456 617.325 282.624 615.464 282.624C614.636 282.624 613.809 282.832 613.189 283.04C612.568 283.456 611.948 283.872 611.534 284.497C611.121 285.329 610.707 286.161 610.5 287.41C610.293 288.658 610.293 290.947 610.293 294.485C610.293 297.398 610.293 299.479 610.5 300.727C610.707 301.976 610.914 302.808 611.121 303.432C611.534 304.472 612.155 305.097 612.982 305.721C613.809 306.137 614.636 306.345 615.671 306.345C617.739 306.345 619.186 305.513 619.807 304.056C620.427 302.6 620.841 299.479 620.841 294.485ZM648.968 297.814C648.14 296.773 646.693 295.525 644.418 293.86C644.004 293.652 643.384 293.236 642.763 292.82C638.834 290.323 636.972 288.034 636.972 286.161C636.972 285.121 637.386 284.081 638.213 283.248C639.04 282.416 640.075 282 641.522 282C642.97 282 644.004 282.416 644.831 283.248C645.452 284.081 645.865 285.329 645.865 286.786V287.41H649.795V286.578C649.795 284.081 649.174 282.208 647.727 280.751C646.279 279.503 644.211 278.67 641.729 278.67C639.247 278.67 636.972 279.295 635.525 280.751C633.87 282.208 633.043 283.872 633.043 286.161C633.043 287.826 633.457 289.283 634.284 290.323C635.111 291.363 636.766 293.028 639.661 294.693C639.868 294.901 640.281 295.109 640.902 295.525C644.624 297.814 646.279 299.687 646.279 301.559C646.279 302.808 645.865 303.848 644.831 304.681C644.004 305.513 642.763 305.929 641.315 305.929C639.868 305.929 638.627 305.513 638.006 304.681C637.386 303.848 636.972 302.392 636.972 300.519V299.895H632.836C632.836 300.103 632.836 300.103 632.836 300.311C632.836 300.519 632.836 300.727 632.836 300.727C632.836 303.432 633.456 305.513 634.904 306.761C636.352 308.218 638.42 308.842 641.315 308.842C644.211 308.842 646.279 308.218 647.933 306.761C649.588 305.305 650.208 303.432 650.208 300.727C650.002 300.103 649.588 298.854 648.968 297.814ZM160.474 353.996C158.406 356.077 159.44 357.533 160.267 358.99C161.922 359.198 162.749 357.533 162.542 355.66C162.129 353.58 161.922 353.788 160.474 353.996ZM136.691 254.949C140 249.539 133.175 243.297 130.9 250.58C128.418 253.285 133.381 259.111 136.691 254.949ZM76.301 231.02C77.7487 236.222 82.7122 239.759 90.3643 237.679C92.4324 237.054 95.5346 236.43 96.1551 233.725C96.5687 232.06 98.0164 231.02 98.2232 229.147C98.43 227.483 106.703 230.188 113.114 232.685C112.287 233.101 111.459 233.933 110.632 234.973C106.496 239.967 107.116 240.384 111.459 244.545C132.141 247.458 120.766 238.927 121.179 237.262C120.766 236.638 120.352 236.014 119.939 235.39C120.559 235.598 120.766 235.806 120.766 235.598C120.559 235.598 120.352 235.39 119.939 235.182C117.87 232.477 115.802 231.436 113.321 232.685C111.873 232.06 110.425 231.644 108.771 231.02C102.773 228.731 99.0504 227.066 98.6368 225.402C96.9823 215.206 80.8509 211.252 78.1623 219.576C76.0942 227.691 73.4056 229.147 73.6124 230.188C75.6805 229.771 75.0601 228.315 76.301 231.02Z" fill="#313E4F"/>
</g>
<rect x="700" y="264" width="2" height="87" fill="#E8EDF3"/>
</g>
<defs>
<clipPath id="clip0_7975_1884">
<rect width="1280" height="640" rx="40" fill="white"/>
</clipPath>
<clipPath id="clip1_7975_1884">
<rect width="601" height="206" fill="white" transform="translate(49 215)"/>
</clipPath>
</defs>
</svg>
